<svg width="320" height="291" viewBox="0 0 320 291" fill="none" xmlns="http://www.w3.org/2000/svg">
<g clip-path="url(#clip0_2037_234)">
<path d="M9.39113 31.1188V0.0146484H0V31.1119H9.03007" fill="black"/>
<path d="M44.4214 31.1046V0.0141602H35.0303V31.1114H44.0603" fill="black"/>
<path d="M14.2882 45.9735L12.0908 43.77C12.7235 44.6356 13.456 45.3666 14.2882 45.9735Z" fill="black"/>
<path d="M10.0683 53.5808L3.35938 46.853C5.02371 49.7324 7.30014 51.9773 10.0683 53.5808Z" fill="black"/>
<path d="M1.70187 43.2049L13.6755 55.2121C14.1328 55.3707 14.6005 55.5155 15.0785 55.6431L1.26172 41.7876C1.39583 42.2704 1.54369 42.7462 1.70531 43.2049H1.70187Z" fill="black"/>
<path d="M0.680766 39.2221L17.6061 56.1949C17.9809 56.257 18.3558 56.3087 18.7375 56.3569L0.501953 38.0703C0.553534 38.46 0.611992 38.8462 0.680766 39.2255V39.2221Z" fill="black"/>
<path d="M0.281582 35.8665L20.8932 56.536C21.2234 56.5532 21.5569 56.5601 21.8939 56.5636L0.226562 34.832C0.240317 35.1803 0.26095 35.5217 0.281582 35.8631V35.8665Z" fill="black"/>
<path d="M12.0908 43.7701L0.203125 31.8491V32.825L23.8305 56.5187C24.1366 56.5014 24.4426 56.4842 24.7418 56.46L14.2847 45.9736C13.4525 45.3701 12.7201 44.6356 12.0873 43.7701H12.0908Z" fill="black"/>
<path d="M9.8455 38.5598L2.43507 31.1079H1.46191L10.2031 39.8943C10.069 39.4667 9.94867 39.0219 9.84206 38.5598H9.8455Z" fill="black"/>
<path d="M17.957 47.6704L26.5126 56.2499C26.7945 56.2085 27.0731 56.1637 27.3482 56.112L19.195 47.9359C18.7686 47.867 18.3594 47.7773 17.9605 47.6739L17.957 47.6704Z" fill="black"/>
<path d="M22.2587 48.1495C22.1899 48.1495 22.1246 48.1564 22.0524 48.1564C21.8254 48.1564 21.6019 48.1495 21.3818 48.1426L28.978 55.76C29.2359 55.6945 29.4903 55.6255 29.7414 55.5531L22.3619 48.1529C22.3275 48.1529 22.2931 48.1495 22.2587 48.1495Z" fill="black"/>
<path d="M9.33253 35.0874L5.36769 31.1011H4.39453L9.43569 36.1667C9.39442 35.815 9.36004 35.4563 9.33253 35.0874Z" fill="black"/>
<path d="M24.25 48.0635L31.2409 55.074C31.4782 54.9878 31.7086 54.8947 31.939 54.7981L25.1131 47.9531C24.8311 47.998 24.5423 48.0324 24.25 48.0635Z" fill="black"/>
<path d="M9.23305 32.0286L8.32179 31.1079H7.34863L9.23993 33.0114C9.23993 32.839 9.23305 32.0286 9.23305 32.0286Z" fill="black"/>
<path d="M26.7461 47.608L33.3106 54.1909C33.5272 54.084 33.7404 53.9737 33.9536 53.8599L27.4854 47.3735C27.2447 47.4597 27.0006 47.5391 26.7461 47.608Z" fill="black"/>
<path d="M28.8677 46.777L35.1949 53.122C35.3909 52.9944 35.5869 52.8668 35.7795 52.7323L29.4901 46.4253C29.2872 46.5494 29.0775 46.6632 28.8643 46.7736L28.8677 46.777Z" fill="black"/>
<path d="M30.6523 45.6046L36.9074 51.8772C37.0862 51.7324 37.265 51.5875 37.4369 51.4324L31.1682 45.146C30.9997 45.3046 30.8312 45.4598 30.6523 45.6046Z" fill="black"/>
<path d="M32.1109 44.1119L38.4415 50.4603C38.5997 50.2948 38.7613 50.1292 38.9126 49.9603L32.5235 43.5532C32.3894 43.7463 32.2518 43.9325 32.1074 44.1119H32.1109Z" fill="black"/>
<path d="M33.2734 42.3183L39.8036 48.8667C39.9445 48.6839 40.0855 48.4977 40.2196 48.3081L33.5932 41.6631C33.4901 41.8872 33.3835 42.1045 33.2734 42.3183Z" fill="black"/>
<path d="M34.1533 40.2424L40.9964 47.1046C41.1167 46.9012 41.2405 46.6977 41.354 46.4874L34.3837 39.4976C34.3115 39.7527 34.2358 40.001 34.1533 40.2424Z" fill="black"/>
<path d="M34.7617 37.894L42.0071 45.1597C42.1103 44.9356 42.21 44.7149 42.3063 44.4839L34.9061 37.063C34.8614 37.3458 34.8133 37.6216 34.7617 37.894Z" fill="black"/>
<path d="M35.1191 35.2907L42.8459 43.0392C42.9285 42.7944 43.0076 42.553 43.0832 42.3012L35.1845 34.3804C35.1673 34.6907 35.1467 34.9942 35.1191 35.2907Z" fill="black"/>
<path d="M35.2334 32.449L43.4932 40.732C43.5551 40.4665 43.6135 40.2044 43.6686 39.932L35.2334 31.4731V32.449Z" fill="black"/>
<path d="M36.8594 31.1011L43.95 38.2323C43.9878 37.9461 44.0257 37.6598 44.06 37.3667L37.8325 31.1011H36.8594Z" fill="black"/>
<path d="M39.7656 31.0942L44.2084 35.5288C44.2256 35.2185 44.2394 34.9081 44.2463 34.5909L40.7388 31.0942H39.7656Z" fill="black"/>
<path d="M43.6748 31.0942H42.7051L44.2628 32.6288V31.6529L43.6748 31.0942Z" fill="black"/>
<path d="M55.7451 55.8462H64.7752V14.4245L55.7451 1.26904V55.8462Z" fill="black"/>
<path d="M100.369 0.275879H91.3389V38.8458L100.369 52.5806V0.275879Z" fill="black"/>
<path d="M55.7656 0V1.01382L55.8 1.05865V0H55.7656Z" fill="black"/>
<path d="M55.7695 0V1.33796L56.4573 2.34143V0H55.7695Z" fill="black"/>
<path d="M57.8877 0V4.43459L58.5754 5.43806V0H57.8877Z" fill="black"/>
<path d="M59.9717 0V7.47949L60.6594 8.48296V0H59.9717Z" fill="black"/>
<path d="M62.0586 0V10.5037L62.7463 11.5037V0H62.0586Z" fill="black"/>
<path d="M64.449 0H64.0879V13.5693L64.7756 14.5728V0H64.449Z" fill="black"/>
<path d="M66.2295 2.51367V16.2726L66.9172 17.2761V3.51714L66.2295 2.51367Z" fill="black"/>
<path d="M68.3174 5.55859V19.3175L69.0051 20.321V6.56207L68.3174 5.55859Z" fill="black"/>
<path d="M70.4043 8.6001V22.359L71.092 23.3625V9.60357L70.4043 8.6001Z" fill="black"/>
<path d="M72.4912 11.645V25.404L73.179 26.4074V12.645L72.4912 11.645Z" fill="black"/>
<path d="M74.5752 14.6865V28.4455L75.2629 29.4489V15.69L74.5752 14.6865Z" fill="black"/>
<path d="M76.6631 17.728V31.4904L77.3508 32.4904V18.7315L76.6631 17.728Z" fill="black"/>
<path d="M78.75 20.7729V34.5319L79.4377 35.5354V21.7764L78.75 20.7729Z" fill="black"/>
<path d="M80.834 23.8145V37.5734L81.5217 38.5769V24.8179L80.834 23.8145Z" fill="black"/>
<path d="M82.9209 26.8594V40.6183L83.6086 41.6218V27.8594L82.9209 26.8594Z" fill="black"/>
<path d="M85.0088 29.9009V43.6598L85.6965 44.6633V30.9044L85.0088 29.9009Z" fill="black"/>
<path d="M87.0957 32.9424V46.7048L87.7834 47.7048V33.9459L87.0957 32.9424Z" fill="black"/>
<path d="M89.1797 35.9873V49.7462L89.8674 50.7497V36.9908L89.1797 35.9873Z" fill="black"/>
<path d="M91.332 38.6494V52.7877L92.0198 53.7912V39.6529L91.332 38.6494Z" fill="black"/>
<path d="M93.3545 41.7734V55.591H94.0422V42.7769L93.3545 41.7734Z" fill="black"/>
<path d="M95.4414 44.9873V55.591H96.1291V46.1184L95.4414 44.9873Z" fill="black"/>
<path d="M97.5254 48.1562V55.5909H98.2131V49.1597L97.5254 48.1562Z" fill="black"/>
<path d="M99.6709 51.2012V55.5909H100.359V52.2046L99.6709 51.2012Z" fill="black"/>
<path d="M133.581 77.647C118.595 77.647 108.031 89.6886 108.031 106.348C108.031 123.007 118.595 135.052 133.581 135.052C148.567 135.052 159.223 122.917 159.223 106.348C159.223 89.7783 148.57 77.647 133.581 77.647ZM133.581 126.631C123.832 126.631 117.512 118.12 117.512 106.351C117.512 94.5819 123.832 86.0713 133.581 86.0713C143.33 86.0713 149.743 94.5819 149.743 106.351C149.743 118.12 143.333 126.631 133.581 126.631Z" fill="black"/>
<path d="M189.477 78.5537H170.787V134.145H189.477C205.817 134.145 216.381 123.279 216.381 106.347C216.381 89.416 205.817 78.5537 189.477 78.5537ZM189.115 125.724H180.178V86.8815H189.115C200.762 86.8815 206.993 94.3955 206.993 106.347C206.993 118.299 200.762 125.724 189.115 125.724Z" fill="black"/>
<path d="M280.207 124.186C276.776 124.186 274.069 126.903 274.069 130.434C274.069 133.966 276.779 136.679 280.207 136.679C283.636 136.679 286.346 133.962 286.346 130.434C286.346 126.907 283.636 124.186 280.207 124.186Z" fill="black"/>
<path d="M82.1168 85.354C87.8044 85.354 92.8077 87.3471 97.2333 91.5127V81.7366C93.6227 78.7469 88.2583 76.9365 82.0273 76.9365" fill="black"/>
<path d="M82.1855 134.338C82.1855 134.338 82.0651 134.348 82.5156 134.338C88.7431 134.172 93.6192 132.528 97.2333 129.541V119.762C92.8077 123.927 88.3717 125.741 82.6841 125.741C82.519 125.741 82.1855 125.741 82.1855 125.741V134.338Z" fill="black"/>
<path d="M68.5127 118.427C69.9123 120.714 71.7245 122.548 73.884 123.814L68.5127 118.427Z" fill="black"/>
<path d="M66.1955 128.917L61.6289 124.338C62.9597 126.072 64.4934 127.603 66.1955 128.917Z" fill="black"/>
<path d="M61.6285 124.338L66.1951 128.917C67.1132 129.624 68.0761 130.269 69.0905 130.845L59.6787 121.407C60.2702 122.438 60.9201 123.417 61.6285 124.338Z" fill="black"/>
<path d="M57.8982 117.637L72.7776 132.558C73.259 132.738 73.7473 132.903 74.2459 133.055L57.3652 116.127C57.5303 116.637 57.7091 117.141 57.8948 117.634L57.8982 117.637Z" fill="black"/>
<path d="M56.6119 113.386L76.8831 133.714C77.2717 133.79 77.6671 133.862 78.0626 133.921L56.3574 112.155C56.4365 112.569 56.519 112.979 56.6119 113.386Z" fill="black"/>
<path d="M55.9958 109.813L80.2594 134.145C80.3556 134.148 80.4519 134.159 80.5482 134.162V134.173H80.782C80.9505 134.173 81.1156 134.197 81.2875 134.197L55.8857 108.724C55.9167 109.089 55.9545 109.451 55.9958 109.81V109.813Z" fill="black"/>
<path d="M68.5131 118.427L55.7451 105.624C55.7451 105.955 55.752 106.286 55.7623 106.617L82.1854 133.114V132.138L73.8843 123.814C71.7248 122.552 69.9126 120.714 68.5131 118.427Z" fill="black"/>
<path d="M77.2788 125.238L82.1824 130.155V129.179L78.5305 125.517C78.1041 125.441 77.688 125.348 77.2754 125.234L77.2788 125.238Z" fill="black"/>
<path d="M66.2644 113.217L55.8485 102.771C55.8244 103.075 55.8072 103.382 55.79 103.689L66.7217 114.651C66.5567 114.186 66.4019 113.706 66.2644 113.217Z" fill="black"/>
<path d="M80.3457 125.751L82.2198 127.696V126.72L81.3292 125.758H80.5692C80.4936 125.758 80.4214 125.751 80.3491 125.748L80.3457 125.751Z" fill="black"/>
<path d="M56.0303 100.968L65.6415 110.606C65.5693 110.22 65.5039 109.834 65.4489 109.437L56.1506 100.113C56.1059 100.396 56.0681 100.682 56.0337 100.971L56.0303 100.968Z" fill="black"/>
<path d="M56.4463 98.4265L65.2322 107.237C65.2116 106.903 65.2013 106.565 65.1909 106.223L56.6217 97.6299C56.5598 97.8954 56.5013 98.1609 56.4497 98.4299L56.4463 98.4265Z" fill="black"/>
<path d="M57.0622 95.9303C57.0519 95.9717 57.0382 96.0096 57.0244 96.051L65.212 104.262C65.2258 103.955 65.2533 103.655 65.2773 103.351L57.2582 95.3096C57.1929 95.5165 57.1241 95.7234 57.0622 95.9337V95.9303Z" fill="black"/>
<path d="M57.7637 93.8333L65.4733 101.565C65.5145 101.282 65.5627 101.006 65.6143 100.73L58.0422 93.1367C57.9494 93.3678 57.8531 93.5988 57.7637 93.8333Z" fill="black"/>
<path d="M58.6436 91.7543L65.9371 99.0682C65.9955 98.8027 66.0609 98.5441 66.1296 98.2855L58.9668 91.1025C58.8568 91.3198 58.7502 91.537 58.647 91.7543H58.6436Z" fill="black"/>
<path d="M59.6553 89.8091L66.5843 96.7575C66.6668 96.5127 66.7493 96.2748 66.8388 96.0368L60.0198 89.1987C59.896 89.4022 59.7756 89.6056 59.6587 89.8091H59.6553Z" fill="black"/>
<path d="M60.793 87.9918L67.4159 94.6334C67.5191 94.4092 67.6223 94.192 67.7323 93.9747L61.1987 87.4229C61.0612 87.6125 60.9271 87.8022 60.7964 87.9953L60.793 87.9918Z" fill="black"/>
<path d="M62.0547 86.2986L68.4335 92.6953C68.5539 92.4919 68.6811 92.2919 68.8083 92.0953L62.4983 85.7676C62.347 85.9434 62.1991 86.1193 62.0547 86.2986Z" fill="black"/>
<path d="M63.4375 84.7299L69.6306 90.9404C69.7716 90.7577 69.9195 90.5783 70.0673 90.4025L63.9189 84.2368C63.7573 84.3989 63.5957 84.561 63.4375 84.7265V84.7299Z" fill="black"/>
<path d="M64.9473 83.2813L71.0235 89.3745C71.1885 89.2125 71.3536 89.0538 71.5255 88.9021L65.4734 82.833C65.298 82.9813 65.1226 83.133 64.9507 83.2847L64.9473 83.2813Z" fill="black"/>
<path d="M66.5801 81.9606L72.615 88.0125C72.8042 87.8745 72.9933 87.7401 73.1859 87.6125L67.144 81.5537C66.9549 81.6882 66.7658 81.8261 66.5801 81.9641V81.9606Z" fill="black"/>
<path d="M68.3408 80.7679L74.4273 86.8715C74.6405 86.7577 74.8606 86.6508 75.0807 86.5508L68.9495 80.4023C68.7431 80.5196 68.5437 80.6437 68.3408 80.7679Z" fill="black"/>
<path d="M70.2393 79.7123L76.4977 85.9883C76.7419 85.9056 76.9929 85.8297 77.2439 85.7607L70.8926 79.3916C70.6725 79.4951 70.4559 79.602 70.2393 79.7123Z" fill="black"/>
<path d="M72.2783 78.7987L78.8738 85.4127C79.1592 85.3678 79.448 85.3334 79.7403 85.3058L72.9867 78.5332C72.7494 78.6194 72.5156 78.7091 72.2818 78.8022L72.2783 78.7987Z" fill="black"/>
<path d="M74.4688 78.0399L81.6247 85.216H82.1818V84.7987L75.2321 77.8296C74.9777 77.8986 74.7232 77.9675 74.4688 78.0399Z" fill="black"/>
<path d="M76.8379 77.454L82.5805 83.2059V82.23L77.6597 77.2988C77.3846 77.3437 77.1095 77.3954 76.8379 77.4506V77.454Z" fill="black"/>
<path d="M80.2939 76.9883C79.9948 77.009 79.699 77.0366 79.4033 77.0676L82.5807 80.2642L82.5669 79.1987L80.2974 76.9849L80.2939 76.9883Z" fill="black"/>
<path d="M226.99 125.772H236.168V109.879H260.634V101.641H236.168V86.9713H263.162V78.6436H226.959" fill="black"/>
<path d="M226.99 133.338L227.816 134.169H228.789L226.99 132.362V133.338Z" fill="black"/>
<path d="M226.99 130.379L230.766 134.169H231.739L226.99 129.403V130.379Z" fill="black"/>
<path d="M226.99 127.421L233.716 134.169H234.69L226.99 126.445V127.421Z" fill="black"/>
<path d="M228.297 125.772L236.667 134.169H237.64L229.267 125.772H228.297Z" fill="black"/>
<path d="M231.247 125.772L239.617 134.169H240.59L232.217 125.772H231.247Z" fill="black"/>
<path d="M234.197 125.772L242.567 134.169H243.54L235.17 125.772H234.197Z" fill="black"/>
<path d="M237.189 125.813L245.518 134.169H246.491L238.163 125.813H237.189Z" fill="black"/>
<path d="M240.14 125.813L248.468 134.169H249.441L241.113 125.813H240.14Z" fill="black"/>
<path d="M243.09 125.813L251.418 134.169H252.392L244.063 125.813H243.09Z" fill="black"/>
<path d="M246.04 125.813L254.369 134.169H255.342L247.013 125.813H246.04Z" fill="black"/>
<path d="M248.991 125.813L257.32 134.169H258.293L249.964 125.813H248.991Z" fill="black"/>
<path d="M251.941 125.813L260.27 134.169H261.243L252.915 125.813H251.941Z" fill="black"/>
<path d="M254.892 125.813L263.093 134.038V133.065L255.865 125.813H254.892Z" fill="black"/>
<path d="M257.842 125.813L263.093 131.079V130.107L258.815 125.813H257.842Z" fill="black"/>
<path d="M261.766 125.813H260.793L263.093 128.12V127.148L261.766 125.813Z" fill="black"/>
<path d="M55.7451 213.226H64.7752V171.801L55.7451 158.645V213.226Z" fill="black"/>
<path d="M100.369 157.655H91.3389V196.225L100.369 209.96V157.655Z" fill="black"/>
<path d="M55.7656 157.379V158.393L55.8 158.438V157.379H55.7656Z" fill="black"/>
<path d="M55.7695 157.379V158.717L56.4573 159.721V157.379H55.7695Z" fill="black"/>
<path d="M57.8877 157.379V161.814L58.5754 162.817V157.379H57.8877Z" fill="black"/>
<path d="M59.9717 157.379V164.859L60.6594 165.862V157.379H59.9717Z" fill="black"/>
<path d="M62.0586 157.379V167.88L62.7463 168.883V157.379H62.0586Z" fill="black"/>
<path d="M64.449 157.379H64.0879V170.949L64.7756 171.952V157.379H64.449Z" fill="black"/>
<path d="M66.2295 159.893V173.652L66.9172 174.655V160.897L66.2295 159.893Z" fill="black"/>
<path d="M68.3174 162.938V176.697L69.0051 177.7V163.941L68.3174 162.938Z" fill="black"/>
<path d="M70.4043 165.979V179.738L71.092 180.742V166.983L70.4043 165.979Z" fill="black"/>
<path d="M72.4912 169.021V182.783L73.179 183.783V170.024L72.4912 169.021Z" fill="black"/>
<path d="M74.5752 172.066V185.825L75.2629 186.828V173.069L74.5752 172.066Z" fill="black"/>
<path d="M76.6631 175.107V188.866L77.3508 189.87V176.111L76.6631 175.107Z" fill="black"/>
<path d="M78.75 178.152V191.911L79.4377 192.915V179.156L78.75 178.152Z" fill="black"/>
<path d="M80.834 181.194V194.953L81.5217 195.956V182.197L80.834 181.194Z" fill="black"/>
<path d="M82.9209 184.235V197.998L83.6086 198.998V185.239L82.9209 184.235Z" fill="black"/>
<path d="M85.0088 187.28V201.039L85.6965 202.043V188.284L85.0088 187.28Z" fill="black"/>
<path d="M87.0957 190.322V204.081L87.7834 205.084V191.325L87.0957 190.322Z" fill="black"/>
<path d="M89.1797 193.366V207.125L89.8674 208.129V194.37L89.1797 193.366Z" fill="black"/>
<path d="M91.332 196.029V210.167L92.0198 211.171V197.029L91.332 196.029Z" fill="black"/>
<path d="M93.3545 199.153V212.97H94.0422V200.156L93.3545 199.153Z" fill="black"/>
<path d="M95.4414 202.367V212.97H96.1291V203.498L95.4414 202.367Z" fill="black"/>
<path d="M97.5254 205.536V212.97H98.2131V206.539L97.5254 205.536Z" fill="black"/>
<path d="M99.6709 208.581V212.97H100.359V209.584L99.6709 208.581Z" fill="black"/>
<path d="M226.959 212.643H263.162V204.222H236.168V188.287H260.634V180.049H236.168V165.38H263.162V157.052H226.959V212.643Z" fill="black"/>
<path d="M301.875 165.645H292.483V212.908H301.875V165.645Z" fill="black"/>
<path d="M274.065 163.683L275.94 165.559H276.913L274.065 162.707V163.683Z" fill="black"/>
<path d="M274.065 160.724L278.89 165.559H279.863L274.065 159.749V160.724Z" fill="black"/>
<path d="M274.065 157.055V157.766L281.84 165.559H282.814L274.33 157.055H274.065Z" fill="black"/>
<path d="M276.308 157.055L284.791 165.559H285.764L277.281 157.055H276.308Z" fill="black"/>
<path d="M279.258 157.055L287.741 165.559H288.714L280.231 157.055H279.258Z" fill="black"/>
<path d="M282.208 157.055L290.691 165.559H291.664L283.181 157.055H282.208Z" fill="black"/>
<path d="M285.159 157.055L293.759 165.669H294.733L286.132 157.055H285.159Z" fill="black"/>
<path d="M288.109 157.055L296.689 165.655H297.662L289.083 157.055H288.109Z" fill="black"/>
<path d="M291.06 157.055L299.674 165.655H300.647L292.033 157.055H291.06Z" fill="black"/>
<path d="M294.01 157.055L302.493 165.559H303.466L294.983 157.055H294.01Z" fill="black"/>
<path d="M296.96 157.055L305.443 165.559H306.416L297.933 157.055H296.96Z" fill="black"/>
<path d="M299.914 157.055L308.394 165.559H309.367L300.884 157.055H299.914Z" fill="black"/>
<path d="M302.864 157.055L311.344 165.559H312.317L303.834 157.055H302.864Z" fill="black"/>
<path d="M305.815 157.055L314.295 165.559H315.268L306.785 157.055H305.815Z" fill="black"/>
<path d="M308.766 157.055L317.249 165.559H318.219L309.735 157.055H308.766Z" fill="black"/>
<path d="M311.716 157.055L320 165.362V164.386L312.686 157.055H311.716Z" fill="black"/>
<path d="M314.666 157.055L319.999 162.404V161.428L315.636 157.055H314.666Z" fill="black"/>
<path d="M318.587 157.055H317.617L320 159.441V158.469L318.587 157.055Z" fill="black"/>
<path d="M97.5047 233.595C82.5188 233.595 71.9551 245.637 71.9551 262.296C71.9551 278.955 82.5188 291 97.5047 291C112.491 291 123.147 278.865 123.147 262.296C123.147 245.727 112.491 233.595 97.5047 233.595ZM97.5047 282.576C87.756 282.576 81.4356 274.065 81.4356 262.296C81.4356 250.527 87.756 242.016 97.5047 242.016C107.253 242.016 113.667 250.527 113.667 262.296C113.667 274.065 107.257 282.576 97.5047 282.576Z" fill="black"/>
<path d="M174.983 251.161C174.983 240.295 167.579 234.502 156.111 234.502H134.712V290.093H144.103V267.548H150.781L166.221 290.093H176.874L160.801 267.185C169.56 265.827 174.979 260.485 174.979 251.161H174.983ZM144.103 259.672V242.65H155.929C162.156 242.65 165.681 246.002 165.681 251.164C165.681 256.327 162.156 259.675 155.929 259.675H144.103V259.672Z" fill="black"/>
<path d="M36.877 236.63H29.2912L18.9854 276.558L22.7507 290.91L32.9912 252.475L43.0254 290.879L46.9249 275.903L36.877 236.63Z" fill="black"/>
<path d="M13.628 289.825L14.6803 290.883H15.6534L13.291 288.514L13.628 289.825Z" fill="black"/>
<path d="M12.6026 285.842L17.63 290.883H18.6032L12.2656 284.528L12.6026 285.842Z" fill="black"/>
<path d="M11.5811 281.859L20.5803 290.883H21.5534L11.2441 280.545L11.5811 281.859Z" fill="black"/>
<path d="M10.5606 277.872L22.517 289.866L22.18 288.552L10.2236 276.562L10.5606 277.872Z" fill="black"/>
<path d="M9.53914 273.89L21.4921 285.879L21.1551 284.566L9.20215 272.576L9.53914 273.89Z" fill="black"/>
<path d="M8.51473 269.907L20.4677 281.89L20.1307 280.576L8.17773 268.593L8.51473 269.907Z" fill="black"/>
<path d="M7.49324 265.92L19.4428 277.903L19.1058 276.589L7.15625 264.61L7.49324 265.92Z" fill="black"/>
<path d="M6.47176 261.937L18.4179 273.917L18.0774 272.603L6.13477 260.624L6.47176 261.937Z" fill="black"/>
<path d="M5.44735 257.954L17.39 269.931L17.053 268.617L5.11035 256.641L5.44735 257.954Z" fill="black"/>
<path d="M4.42586 253.972L16.3651 265.944L16.0281 264.63L4.08887 252.658L4.42586 253.972Z" fill="black"/>
<path d="M3.40438 249.985L15.3402 261.958L15.0032 260.641L3.06738 248.671L3.40438 249.985Z" fill="black"/>
<path d="M2.38289 246.003L14.3152 257.969L13.9782 256.655L2.0459 244.689L2.38289 246.003Z" fill="black"/>
<path d="M1.35848 242.02L13.2908 253.982L12.9538 252.668L1.02148 240.706L1.35848 242.02Z" fill="black"/>
<path d="M0.336994 238.034L12.2659 249.996L11.9255 248.682L0 236.723L0.336994 238.034Z" fill="black"/>
<path d="M0.549805 235.292L11.2408 246.009L10.9003 244.696L1.52296 235.292H0.549805Z" fill="black"/>
<path d="M4.47413 235.292H3.50098L10.2133 242.023L9.87635 240.709" fill="black"/>
<path d="M7.42433 235.292H6.45117L9.18839 238.033L8.8514 236.72L7.42433 235.292Z" fill="black"/>
<path d="M52.1143 289.825L51.0586 290.883H50.0889L52.4513 288.514L52.1143 289.825Z" fill="black"/>
<path d="M53.1358 285.842L48.1084 290.883H47.1387L53.4728 284.528L53.1358 285.842Z" fill="black"/>
<path d="M54.1563 281.859L45.1572 290.883H44.1875L54.4933 280.545L54.1563 281.859Z" fill="black"/>
<path d="M55.1815 277.872L43.2217 289.866L43.5587 288.552L55.5185 276.562L55.1815 277.872Z" fill="black"/>
<path d="M56.2025 273.89L44.2461 285.879L44.5865 284.566L56.5395 272.576L56.2025 273.89Z" fill="black"/>
<path d="M57.2245 269.907L45.2715 281.89L45.6119 280.576L57.5615 268.593L57.2245 269.907Z" fill="black"/>
<path d="M58.2459 265.92L46.2998 277.903L46.6368 276.589L58.5829 264.61L58.2459 265.92Z" fill="black"/>
<path d="M59.2703 261.937L47.3242 273.917L47.6612 272.603L59.6073 260.624L59.2703 261.937Z" fill="black"/>
<path d="M60.2913 257.954L48.3486 269.931L48.6856 268.617L60.6283 256.641L60.2913 257.954Z" fill="black"/>
<path d="M61.3132 253.972L49.374 265.944L49.711 264.63L61.6502 252.658L61.3132 253.972Z" fill="black"/>
<path d="M62.3377 249.985L50.3984 261.958L50.7389 260.641L62.6747 248.671L62.3377 249.985Z" fill="black"/>
<path d="M63.3586 246.003L51.4229 257.969L51.7633 256.655L63.6956 244.689L63.3586 246.003Z" fill="black"/>
<path d="M64.3801 242.02L52.4512 253.982L52.7882 252.668L64.7171 240.706L64.3801 242.02Z" fill="black"/>
<path d="M65.4011 238.034L53.4756 249.996L53.8126 248.682L65.738 236.723L65.4011 238.034Z" fill="black"/>
<path d="M65.1885 235.292L54.501 246.009L54.838 244.696L64.2153 235.292H65.1885Z" fill="black"/>
<path d="M61.2646 235.292H62.2378L55.5254 242.023L55.8624 240.709" fill="black"/>
<path d="M58.3139 235.292H59.287L56.5498 238.033L56.8902 236.72L58.3139 235.292Z" fill="black"/>
<path d="M295.901 260.365L319.927 234.857H308.281L286.066 259.03V234.857H276.679V290.448H286.066V265.006L281.974 260.365H295.901Z" fill="black"/>
<path d="M283.298 260.272V261.982L283.986 262.755V260.272H283.298Z" fill="black"/>
<path d="M285.386 260.306V264.32L286.073 265.092V260.306H285.386Z" fill="black"/>
<path d="M287.473 260.261V266.658L288.16 267.43V260.261H287.473Z" fill="black"/>
<path d="M289.557 260.286V268.996L290.244 269.769V260.286H289.557Z" fill="black"/>
<path d="M291.644 260.286V271.334L292.331 272.103V260.286H291.644Z" fill="black"/>
<path d="M294.326 260.296H293.731V273.672L294.419 274.441V260.399L294.326 260.296Z" fill="black"/>
<path d="M295.818 262.244V276.01L296.506 276.779V263.027L295.818 262.244Z" fill="black"/>
<path d="M297.902 264.617V278.348L298.59 279.117V265.399L297.902 264.617Z" fill="black"/>
<path d="M299.99 266.989V280.686L300.678 281.455V267.769L299.99 266.989Z" fill="black"/>
<path d="M302.077 269.362V283.024L302.765 283.793V270.141L302.077 269.362Z" fill="black"/>
<path d="M304.161 271.734V285.362L304.849 286.131V272.514L304.161 271.734Z" fill="black"/>
<path d="M306.248 274.106V287.696L306.936 288.469V274.886L306.248 274.106Z" fill="black"/>
<path d="M308.336 276.476V290.035L308.869 290.631H309.024V277.258L308.336 276.476Z" fill="black"/>
<path d="M310.419 278.848V290.631H311.107V279.631L310.419 278.848Z" fill="black"/>
<path d="M312.507 281.221V290.631H313.195V282.003L312.507 281.221Z" fill="black"/>
<path d="M314.594 283.593V290.631H315.281V284.376L314.594 283.593Z" fill="black"/>
<path d="M316.682 285.965V290.631H317.369V286.748L316.682 285.965Z" fill="black"/>
<path d="M318.766 288.338V290.631H319.453V289.121L318.766 288.338Z" fill="black"/>
</g>
<defs>
<clipPath id="clip0_2037_234">
<rect width="320" height="291" fill="white"/>
</clipPath>
</defs>
</svg>
