<svg width="320" height="25" viewBox="0 0 320 25" fill="none" xmlns="http://www.w3.org/2000/svg">
<g clip-path="url(#clip0_372_5574)">
<path d="M0 15.0635V0.394535H1.99398V14.7864C1.99398 20.4638 5.04314 23.1062 9.18756 23.1062C13.332 23.1062 16.4193 20.4638 16.4193 14.7864V0.394535H18.4133V15.0635C18.4133 21.7283 14.3471 24.9615 9.18565 24.9615C4.02421 24.9615 0 21.7263 0 15.0635Z" fill="white"/>
<path d="M43.0092 24.6055H41.6793L27.0193 3.58738V24.6055H25.1035V0.394535H27.0193L41.0935 20.5831V0.394535H43.0092V24.6055Z" fill="white"/>
<path d="M59.4721 0.0404167C62.3648 0.0404167 64.437 0.829485 66.0398 2.13049V4.33795C64.0459 2.60393 62.0118 1.93226 59.5103 1.93226C54.3889 1.93226 50.6357 5.95458 50.6357 12.5C50.6357 19.0454 54.3889 23.0677 59.5103 23.0677C62.0118 23.0677 64.0459 22.3576 66.0398 20.6216V22.8695C64.437 24.1724 62.3648 24.9596 59.4721 24.9596C53.412 24.9596 48.6035 20.1886 48.6035 12.4981C48.6035 4.80755 53.412 0.0404167 59.4721 0.0404167Z" fill="white"/>
<path d="M81.0548 24.9596C74.9565 24.9596 70.4609 19.9115 70.4609 12.4981C70.4609 5.08468 74.9565 0.0404167 81.0548 0.0404167C87.1531 0.0404167 91.6887 5.08853 91.6887 12.5C91.6887 19.9115 87.1932 24.9615 81.0548 24.9615V24.9596ZM81.0548 1.93226C75.9735 1.93226 72.4931 6.27021 72.4931 12.5C72.4931 18.7298 75.9735 23.0677 81.0548 23.0677C86.1361 23.0677 89.6565 18.7298 89.6565 12.5C89.6565 6.27021 86.1762 1.93226 81.0548 1.93226Z" fill="white"/>
<path d="M97.2451 0.394535H104.555C111.514 0.394535 116.206 5.12702 116.206 12.5C116.206 19.873 111.514 24.6055 104.555 24.6055H97.2451V0.394535ZM104.555 22.7521C110.459 22.7521 114.172 18.6913 114.172 12.5C114.172 6.3087 110.459 2.24788 104.555 2.24788H99.2391V22.7521H104.555Z" fill="white"/>
<path d="M136.655 0.394535V2.24788H123.715V11.199H135.444V13.0504H123.715V22.7521H136.655V24.6055H121.761V0.394535H136.655Z" fill="white"/>
<path d="M143.696 19.44C145.181 19.44 146.354 20.6236 146.354 22.1613C146.354 23.699 145.181 24.8826 143.696 24.8826C142.212 24.8826 141.038 23.699 141.038 22.1613C141.038 20.6236 142.212 19.44 143.696 19.44Z" fill="white"/>
<path d="M170.557 24.6055H167.43L155.153 6.98037V24.6055H151.243V0.394535H155.075L166.647 17.1921V0.394535H170.557V24.6055Z" fill="white"/>
<path d="M192.531 0.394535V4.02233H180.841V10.4099H191.437V13.9992H180.841V20.9392H192.531V24.6055H176.854V0.394535H192.531Z" fill="white"/>
<path d="M196.444 0.394535H216.46V4.02233H208.485V24.6055H204.418V4.02233H196.444V0.394535Z" fill="white"/>
<path d="M235.463 0.394535L239.999 18.2179L244.338 0.394535H248.247L242.071 24.6055H238.317L233.782 7.296L229.168 24.6055H225.455L219.278 0.394535H223.266L227.605 18.2179L232.179 0.394535H235.463Z" fill="white"/>
<path d="M262.131 25C255.641 25 251.067 19.7152 251.067 12.5C251.067 5.28483 255.641 0 262.131 0C268.62 0 273.234 5.24442 273.234 12.5C273.234 19.7556 268.62 25 262.131 25ZM262.131 3.66628C257.908 3.66628 255.172 7.37298 255.172 12.4981C255.172 17.6232 257.91 21.3299 262.131 21.3299C266.351 21.3299 269.13 17.6232 269.13 12.4981C269.13 7.37298 266.353 3.66628 262.131 3.66628Z" fill="white"/>
<path d="M282.309 14.7864V24.6055H278.245V0.394535H287.511C292.476 0.394535 295.681 2.91763 295.681 7.65012C295.681 11.7109 293.334 14.0377 289.543 14.6305L296.502 24.6055H291.888L285.202 14.7864H282.309ZM282.309 11.3568H287.431C290.129 11.3568 291.653 9.898 291.653 7.65012C291.653 5.40223 290.129 3.94342 287.431 3.94342H282.309V11.3568Z" fill="white"/>
<path d="M304.987 10.9238L314.604 0.394535H319.647L308.817 11.9881L319.998 24.6055H314.837L304.985 13.5258V24.6055H300.919V0.394535H304.985V10.9238H304.987Z" fill="white"/>
</g>
<defs>
<clipPath id="clip0_372_5574">
<rect width="320" height="25" fill="white"/>
</clipPath>
</defs>
</svg>
